<mxfile host="app.diagrams.net" modified="2023-11-14T18:38:57.118Z" agent="Mozilla/5.0 (Macintosh; Intel Mac OS X 10_15_7) AppleWebKit/537.36 (KHTML, like Gecko) Chrome/119.0.0.0 Safari/537.36" version="22.1.1" etag="ITCIU_gr_OhBzrUtl-5X" type="github">
  <diagram name="Page-1" id="G9P5R4SWKmULOggviYVV">
    <mxGraphModel>
      <root>
        <mxCell id="0" />
        <mxCell id="1" parent="0" />
      </root>
    </mxGraphModel>
  </diagram>
</mxfile>
